<svg xmlns="http://www.w3.org/2000/svg" width="116" height="28" viewBox="0 0 116 28" fill="none"><g clip-path="url(#clip0_670_5475)"><path d="M10.5658 17.2325C10.1264 16.7014 9.65457 16.3168 9.15014 16.0788C8.62389 15.8354 8.05112 15.7129 7.47273 15.7199C6.79098 15.7199 6.18791 15.8395 5.66352 16.0788C5.15948 16.3025 4.71483 16.6439 4.36592 17.0752C4.01831 17.5128 3.75585 18.0133 3.59251 18.5501C3.41433 19.1297 3.32561 19.7337 3.32952 20.3408C3.32457 20.9518 3.42596 21.559 3.62906 22.1344C3.81874 22.6732 4.10287 23.1729 4.46776 23.6093C4.82511 24.034 5.26958 24.3744 5.77015 24.607C6.30528 24.8523 6.88726 24.9749 7.47453 24.9658C8.82005 24.9658 9.85985 24.4519 10.5939 23.4241L12.115 24.8857C11.5485 25.5566 10.8286 26.0767 10.0182 26.4007C9.20768 26.7205 8.34492 26.8827 7.47513 26.8785C6.53098 26.8785 5.66572 26.7193 4.87933 26.4007C4.12069 26.1019 3.43527 25.6395 2.87062 25.0454C2.31158 24.4472 1.87503 23.7426 1.5862 22.9724C1.28028 22.1753 1.12731 21.2981 1.12731 20.3408C1.11844 19.4512 1.27409 18.5679 1.5862 17.7364C1.87631 16.9643 2.31772 16.2598 2.8838 15.6653C3.45246 15.0742 4.13524 14.6083 4.88951 14.2966C5.66711 13.9687 6.52799 13.8048 7.47213 13.8048C8.35468 13.8 9.23035 13.9623 10.0541 14.2833C10.8707 14.6047 11.6022 15.1142 12.1911 15.7715L10.5658 17.2325Z" fill="#343434" stroke="#343434" stroke-miterlimit="10"></path><path d="M13.5479 20.3399C13.5479 19.366 13.7138 18.4801 14.0457 17.6822C14.3607 16.9109 14.8243 16.2109 15.4092 15.6232C16.0018 15.0371 16.7066 14.5804 17.4802 14.2812C19.1714 13.6432 21.0327 13.6432 22.7239 14.2812C23.4974 14.5806 24.2022 15.0372 24.7949 15.6232C25.3797 16.211 25.8431 16.911 26.1584 17.6822C26.4903 18.4792 26.6562 19.3652 26.6562 20.3399C26.6562 21.3147 26.4903 22.2004 26.1584 22.9971C25.8433 23.7685 25.3798 24.4687 24.7949 25.0567C24.203 25.6428 23.499 26.0999 22.7263 26.3998C21.0349 27.037 19.174 27.037 17.4826 26.3998C16.709 26.1007 16.0042 25.6439 15.4116 25.0579C14.8265 24.4701 14.363 23.7699 14.0481 22.9983C13.7146 22.2012 13.5479 21.3151 13.5479 20.3399ZM15.7501 20.3399C15.7433 20.9603 15.8447 21.577 16.0496 22.1615C16.2402 22.7038 16.5387 23.2007 16.9266 23.6212C17.3145 24.0417 17.7835 24.377 18.3045 24.6062C19.4552 25.0844 20.7453 25.0844 21.896 24.6062C22.4173 24.3772 22.8867 24.042 23.2749 23.6215C23.6631 23.2009 23.9619 22.704 24.1527 22.1615C24.555 20.9814 24.555 19.6985 24.1527 18.5183C23.9623 17.9759 23.6639 17.479 23.276 17.0584C22.888 16.6379 22.4189 16.3027 21.8978 16.0737C20.7471 15.5954 19.457 15.5954 18.3063 16.0737C17.7852 16.3027 17.3161 16.6379 16.9281 17.0584C16.5402 17.479 16.2418 17.9759 16.0514 18.5183C15.8458 19.1028 15.7438 19.7195 15.7501 20.3399Z" fill="#343434" stroke="#343434" stroke-miterlimit="10"></path><path d="M40.2769 24.3544H40.2242C39.8396 25.0629 39.2323 25.6607 38.4024 26.1481C37.5725 26.6355 36.6068 26.8784 35.5053 26.8768C34.6766 26.8824 33.8556 26.7152 33.0934 26.3855C32.3571 26.0685 31.6924 25.6026 31.1398 25.0163C30.5798 24.4165 30.1393 23.7128 29.8422 22.9439C29.2128 21.2663 29.2128 19.4129 29.8422 17.7353C30.1412 16.9644 30.5875 16.261 31.1554 15.6653C31.7307 15.0699 32.423 14.6036 33.1874 14.2967C33.9822 13.9688 34.8609 13.8048 35.8234 13.8048C36.6722 13.795 37.5116 13.986 38.2748 14.3629C39.0262 14.7422 39.6914 15.2762 40.2278 15.9307H40.2805V3.31354L42.2982 1.91211L42.3204 26.5598H40.2769V24.3544ZM40.2769 20.342C40.2837 19.7217 40.1823 19.105 39.9774 18.5204C39.787 17.9781 39.4886 17.4812 39.1008 17.0607C38.713 16.6402 38.2441 16.3049 37.7231 16.0758C36.5715 15.5967 35.2801 15.5967 34.1286 16.0758C33.6077 16.3048 33.1388 16.6398 32.751 17.0602C32.3632 17.4805 32.0648 17.9771 31.8743 18.5192C31.4712 19.6992 31.4712 20.9824 31.8743 22.1624C32.0649 22.7046 32.3634 23.2013 32.7511 23.6218C33.1389 24.0424 33.6077 24.3777 34.1286 24.607C35.2801 25.0862 36.5715 25.0862 37.7231 24.607C38.2435 24.3774 38.7118 24.042 39.0992 23.6215C39.4865 23.201 39.7846 22.7044 39.975 22.1624C40.1807 21.578 40.2829 20.9613 40.2769 20.3408V20.342Z" fill="#343434" stroke="#343434" stroke-miterlimit="10"></path><path d="M56.7005 24.3005C55.9668 25.2575 55.1629 25.9254 54.2886 26.3043C53.4144 26.6832 52.4005 26.8734 51.2471 26.8751C50.2862 26.8751 49.4211 26.7024 48.6519 26.3571C47.9129 26.0327 47.2478 25.5573 46.6983 24.9605C46.1559 24.3605 45.7372 23.6568 45.4666 22.8906C45.1746 22.0731 45.0282 21.2097 45.0341 20.3403C45.0244 19.4365 45.1844 18.5391 45.5056 17.6959C45.7995 16.9223 46.2455 16.2172 46.8164 15.6235C47.383 15.0428 48.0612 14.5861 48.8089 14.2816C49.6087 13.9569 50.4635 13.7944 51.325 13.8031C52.1319 13.794 52.933 13.9428 53.6842 14.2415C54.3855 14.5235 55.0168 14.9589 55.5329 15.5167C56.0481 16.0761 56.4455 16.7588 56.7251 17.5648C57.0046 18.3707 57.1444 19.2874 57.1444 20.3148V20.9791H47.2363C47.2712 21.5077 47.4009 22.0254 47.6191 22.5068C47.8277 22.9789 48.116 23.4104 48.471 23.782C48.8236 24.1469 49.2419 24.44 49.7033 24.6454C50.1909 24.8614 50.718 24.9703 51.2501 24.9648C52.1415 24.9648 52.8932 24.8053 53.505 24.4863C54.1169 24.1673 54.6675 23.6978 55.1567 23.0776L56.7005 24.3005ZM54.944 19.2255C54.9089 18.1625 54.568 17.3124 53.9214 16.6752C53.2748 16.0381 52.3834 15.7193 51.2471 15.7189C50.1113 15.7189 49.1937 16.0377 48.4944 16.6752C47.795 17.3128 47.3757 18.1629 47.2363 19.2255H54.944Z" fill="#343434" stroke="#343434" stroke-miterlimit="10"></path><path d="M59.5039 15.8762V14.122L59.5464 9.07549C59.5464 8.31406 59.586 7.15429 59.7262 6.52523C59.8663 5.89616 60.1557 5.16994 60.3851 4.64289C60.7853 3.72479 61.1861 3.20563 61.5234 2.82127C62.0027 2.27479 62.579 1.79874 63.3206 1.48542C63.8508 1.25371 64.4207 1.12993 64.998 1.12109C65.5971 1.12109 66.316 1.24253 66.5556 1.4247L65.7768 2.76055C64.6386 2.39623 63.5603 2.76055 62.9013 3.42848C62.1824 4.15712 61.9571 5.02543 61.8828 5.18937C61.7343 5.51727 61.5234 6.52523 61.4671 7.4415C61.4389 7.90237 61.4281 8.39846 61.4281 8.92976L61.548 14.122H64.6566L64.0994 15.8762H61.5492V26.5582H59.5039V15.8762Z" fill="#11A0CC" stroke="#11A0CC" stroke-miterlimit="10"></path><path d="M65.9839 20.3399C65.9839 19.3659 66.15 18.48 66.4823 17.6822C66.7974 16.9108 67.2609 16.2109 67.8458 15.6231C68.4383 15.0369 69.1432 14.5802 69.9168 14.2812C71.6079 13.6432 73.4689 13.6432 75.1599 14.2812C75.9337 14.5804 76.6387 15.0371 77.2315 15.6231C77.8161 16.211 78.2794 16.911 78.5944 17.6822C78.9263 18.4792 79.0925 19.3651 79.0929 20.3399C79.0933 21.3147 78.9271 22.2004 78.5944 22.997C78.2795 23.7685 77.8162 24.4686 77.2315 25.0567C76.6387 25.6427 75.9337 26.0994 75.1599 26.3986C73.4688 27.0357 71.608 27.0357 69.9168 26.3986C69.1432 26.0996 68.4383 25.6429 67.8458 25.0567C67.2607 24.4688 66.7972 23.7686 66.4823 22.997C66.15 22.2008 65.9839 21.3151 65.9839 20.3399ZM68.1861 20.3399C68.1793 20.9602 68.2807 21.5769 68.4856 22.1615C68.6763 22.7037 68.9747 23.2004 69.3625 23.6209C69.7503 24.0414 70.2191 24.3768 70.74 24.6061C71.8915 25.0852 73.1829 25.0852 74.3344 24.6061C74.8554 24.3769 75.3244 24.0417 75.7123 23.6211C76.1002 23.2006 76.3987 22.7038 76.5893 22.1615C76.9917 20.9813 76.9917 19.6985 76.5893 18.5183C76.3989 17.9759 76.1005 17.4789 75.7126 17.0584C75.3247 16.6378 74.8556 16.3027 74.3344 16.0737C73.1829 15.5946 71.8915 15.5946 70.74 16.0737C70.2194 16.3031 69.7509 16.6384 69.3635 17.0589C68.9761 17.4795 68.6782 17.9762 68.488 18.5183C68.2822 19.1027 68.18 19.7194 68.1861 20.3399Z" fill="#11A0CC" stroke="#11A0CC" stroke-miterlimit="10"></path><path d="M81.7167 17.0734C81.7167 16.5067 81.6993 15.9752 81.6645 15.4789C81.6298 14.9826 81.6122 14.5309 81.6118 14.1236H83.5522C83.5522 14.4604 83.561 14.797 83.5786 15.1334C83.5962 15.4698 83.6047 15.8153 83.6043 16.1699H83.6571C83.8095 15.8494 84.0084 15.5539 84.2472 15.2931C84.5123 14.9994 84.8166 14.7445 85.1512 14.5359C85.5193 14.3059 85.9162 14.127 86.3313 14.004C86.7911 13.8681 87.268 13.801 87.747 13.8048C87.8872 13.805 88.0272 13.8139 88.1663 13.8316C88.3097 13.8501 88.4505 13.8857 88.5857 13.9378L88.4545 16.0369C88.0971 15.9296 87.7261 15.876 87.3534 15.8778C86.0953 15.8778 85.1821 16.2897 84.6138 17.1135C84.0455 17.9373 83.7615 19.0665 83.7619 20.5011V26.5598H81.7167V17.0734Z" fill="#11A0CC" stroke="#11A0CC" stroke-miterlimit="10"></path><path d="M99.6121 17.2325C99.1728 16.7014 98.7009 16.3168 98.1965 16.0788C97.6702 15.8354 97.0974 15.7129 96.519 15.7199C95.8373 15.7199 95.2342 15.8395 94.7098 16.0788C94.2058 16.3025 93.7612 16.6439 93.4122 17.0752C93.0646 17.5128 92.8022 18.0133 92.6388 18.5501C92.4605 19.1307 92.372 19.7357 92.3764 20.3438C92.3712 20.9549 92.4726 21.5622 92.676 22.1375C92.8659 22.6762 93.15 23.1758 93.5147 23.6124C93.8709 24.0359 94.3136 24.3759 94.8123 24.6088C95.3474 24.8541 95.9294 24.9766 96.5166 24.9677C97.8622 24.9677 98.9022 24.4538 99.6366 23.426L101.161 24.8857C100.595 25.5567 99.8751 26.0769 99.0645 26.4007C98.254 26.7206 97.3912 26.8827 96.5214 26.8785C95.5781 26.8785 94.7128 26.7192 93.9256 26.4007C93.1683 26.1014 92.4842 25.639 91.9205 25.0454C91.3613 24.4472 90.9246 23.7426 90.6355 22.9724C90.3296 22.1753 90.1766 21.2985 90.1766 20.342C90.1678 19.4524 90.3234 18.5691 90.6355 17.7377C90.9246 16.9652 91.3652 16.2602 91.9307 15.6653C92.4992 15.0742 93.1817 14.6083 93.9358 14.2966C94.7134 13.9687 95.5743 13.8048 96.5184 13.8048C97.4012 13.8 98.2771 13.9623 99.1011 14.2833C99.9174 14.6047 100.649 15.1142 101.237 15.7715L99.6121 17.2325Z" fill="#11A0CC" stroke="#11A0CC" stroke-miterlimit="10"></path><path d="M114.427 24.3005C113.692 25.2575 112.888 25.9254 112.015 26.3043C111.141 26.6832 110.128 26.8734 108.973 26.8751C108.012 26.8751 107.147 26.7024 106.378 26.3571C105.639 26.0329 104.974 25.5574 104.425 24.9605C103.882 24.3604 103.463 23.6567 103.192 22.8906C102.9 22.0731 102.754 21.2096 102.76 20.3403C102.75 19.4365 102.91 18.5391 103.232 17.6959C103.526 16.9223 103.972 16.2172 104.543 15.6235C105.109 15.0428 105.787 14.5861 106.535 14.2816C107.335 13.9568 108.19 13.7943 109.051 13.8031C109.858 13.794 110.66 13.9429 111.411 14.2415C112.112 14.5235 112.743 14.9589 113.259 15.5167C113.775 16.0745 114.172 16.7566 114.452 17.563C114.732 18.3693 114.872 19.286 114.872 20.313V20.9773H104.962C104.996 21.5057 105.125 22.0233 105.342 22.505C105.55 22.9773 105.839 23.4089 106.194 23.7801C106.547 24.1454 106.965 24.4385 107.426 24.6436C107.914 24.8596 108.441 24.9684 108.973 24.963C109.865 24.963 110.616 24.8035 111.228 24.4845C111.84 24.1655 112.391 23.6959 112.88 23.0758L114.427 24.3005ZM112.67 19.2255C112.635 18.1625 112.294 17.3124 111.648 16.6752C111.001 16.0381 110.11 15.7193 108.973 15.7189C107.837 15.7189 106.919 16.0376 106.221 16.6752C105.522 17.3128 105.102 18.1629 104.962 19.2255H112.67Z" fill="#11A0CC" stroke="#11A0CC" stroke-miterlimit="10"></path></g><defs><clipPath id="clip0_670_5475"><rect width="116" height="28" fill="white"></rect></clipPath></defs></svg>