<svg xmlns="http://www.w3.org/2000/svg" width="111" height="25" viewBox="0 0 111 25" fill="none"><g clip-path="url(#clip0_670_5485)"><path d="M69.7357 7.52511L73.26 6.66797C74.2312 8.04892 74.5365 8.52511 75.0082 9.38225C75.2025 9.7394 75.258 9.83464 75.4245 10.1203C75.4245 10.1203 75.5077 10.0013 75.5077 9.97749C75.8962 9.19178 76.146 8.71559 76.5622 7.95368C76.7565 7.57273 77.1727 7.0013 77.1727 7.0013H81.1687L77.3115 12.1442L81.9735 18.1203H77.6722L76.3125 16.0727C75.9517 15.5013 75.7575 15.1203 75.369 14.5489C75.369 14.5251 75.2857 14.4299 75.2857 14.4299C75.2857 14.4299 75.2025 14.5489 75.1747 14.6203C74.7862 15.3823 74.2867 16.0965 73.9815 16.5489L72.8992 18.0965H68.5425L73.3432 12.168L69.7357 7.52511Z" fill="#343434"></path><path d="M89.9933 6.97665L89.1331 8.90523H86.9408V14.5957C86.9408 16.0005 87.2461 16.3814 88.4116 16.3814C88.7168 16.3814 89.0221 16.31 89.6326 16.1671L90.0766 17.9052C89.0776 18.2624 88.1896 18.4052 87.3016 18.4052C85.5811 18.4052 84.1936 17.7624 83.8051 16.7624C83.6108 16.2862 83.5831 16.0719 83.5831 15.0481V8.90523H82.2788V7.00046H83.5831C83.5831 5.90523 83.5831 5.16713 83.7218 4.3338L87.1628 3.5957C87.0241 4.61951 86.9686 5.80999 86.9686 6.95285H89.9933V6.97665Z" fill="#343434"></path><path d="M90.8257 7.42876L93.8782 6.73828C94.1834 7.19066 94.3499 7.69066 94.4054 8.33352C94.8772 7.76209 95.7097 7.19066 96.3202 6.92876C96.5977 6.80971 97.0694 6.76209 97.4302 6.76209C97.9297 6.76209 98.1794 6.80971 98.7067 7.00019L97.7632 9.57161C97.4302 9.42876 97.1527 9.35733 96.7642 9.35733C96.0149 9.35733 95.3212 9.66685 94.6829 10.2859V18.1669H91.2974V10.6907C91.3252 9.19066 91.1032 8.04781 90.8257 7.42876Z" fill="#343434"></path><path d="M99.234 8.30934C100.067 7.85696 100.427 7.69029 101.343 7.40458C102.62 6.9522 103.702 6.76172 104.895 6.76172C107.087 6.76172 108.586 7.4522 109.085 8.69029C109.252 9.14267 109.307 9.49981 109.307 10.6903L109.224 14.4284C109.224 14.4998 109.224 14.5474 109.224 14.6189C109.224 15.8093 109.446 16.2617 110.445 16.9046L108.641 18.6903C107.864 18.4046 107.143 17.9046 106.81 17.3331C106.338 17.7141 106.283 17.7617 106.033 17.9284C105.395 18.3093 104.479 18.5474 103.424 18.5474C100.538 18.5474 98.9565 17.2855 98.9565 15.0712C98.9565 12.4522 101.066 11.2379 105.2 11.2379C105.45 11.2379 105.617 11.2379 105.95 11.2617V10.8093C105.95 9.57124 105.672 9.16648 104.423 9.16648C103.341 9.16648 102.065 9.61886 100.677 10.4284L99.234 8.30934ZM105.894 13.2617H105.755C103.397 13.2617 102.592 13.6427 102.592 14.9522C102.592 15.8331 103.23 16.4046 104.09 16.4046C104.729 16.4046 105.367 16.1189 105.866 15.6427L105.894 13.2617Z" fill="#343434"></path><path d="M68.8477 10.3573C68.8477 13.0002 67.7099 15.4049 65.8785 17.2145H65.9062L65.601 17.5002L57.6922 24.643L49.7557 17.5002L49.4505 17.2145H49.4782C47.619 15.4049 46.4812 13.0002 46.4812 10.3573C46.4812 7.57161 47.73 5.024 49.7557 3.19066C51.7537 1.38114 54.5565 0.238281 57.6645 0.238281C63.8527 0.238281 68.8477 4.76209 68.8477 10.3573Z" fill="#92278F"></path><path d="M0.804688 6.92894L3.82944 6.47656C3.96819 6.85751 4.02369 7.16704 4.05144 7.52418C4.63419 6.90513 5.93844 6.47656 7.24269 6.47656C8.15844 6.47656 9.10194 6.73847 9.79569 7.14323C11.1832 7.95275 12.2099 9.38132 12.2099 11.9528C12.2099 14.3575 11.7659 15.5956 10.4062 16.8099C9.51819 17.6194 8.35269 18.0718 6.93744 18.0718C5.91069 18.0718 4.96719 17.8575 4.21794 17.4766C4.27344 17.7385 4.27344 18.3813 4.27344 18.3813V21.1194L0.998937 21.8575V9.71466C0.998937 8.28609 0.971187 7.85751 0.804688 6.92894ZM4.30119 15.1194C4.74519 15.4528 5.49444 15.7623 6.18819 15.7623C7.85319 15.7623 8.51919 14.7861 8.51919 12.2385C8.51919 11.167 8.40819 10.3337 8.18619 9.78609C7.93644 9.16704 7.40919 8.85751 6.54894 8.85751C5.71644 8.85751 4.91169 9.16704 4.30119 9.71466V15.1194Z" fill="#343434"></path><path d="M13.1533 7.11821L16.2058 6.42773C16.5111 6.88012 16.6776 7.38012 16.7331 8.02297C17.2048 7.45154 18.0373 6.88012 18.6478 6.61821C18.9253 6.49916 19.3693 6.45154 19.7578 6.45154C20.2573 6.45154 20.4793 6.49916 21.0343 6.68964L20.0908 9.26107C19.7578 9.11821 19.4803 9.04678 19.0918 9.04678C18.3426 9.04678 17.6488 9.35631 17.0106 9.97535V17.8563H13.6251V10.3801C13.6251 8.88012 13.4308 7.76107 13.1533 7.11821Z" fill="#343434"></path><path d="M26.5013 6.47656C28.3606 6.47656 29.8036 7.02418 30.9136 8.14323C31.9403 9.19085 32.4121 10.4051 32.4121 12.2147C32.4121 14.1194 31.9126 15.4289 30.7748 16.5242C29.7758 17.4766 28.4993 18.0718 26.5013 18.0718C22.9771 18.0718 20.6738 15.8099 20.6738 12.3099C20.6738 8.8099 23.0048 6.47656 26.5013 6.47656ZM26.5568 8.61942C25.7521 8.61942 25.0861 9.04799 24.8086 9.73847C24.5866 10.3337 24.4478 11.1194 24.4478 12.2147C24.4478 13.5004 24.5866 14.4528 24.8918 15.0242C25.1971 15.6432 25.9463 15.9289 26.6123 15.9289C28.0831 15.9289 28.7213 14.7861 28.7213 12.167C28.7213 10.667 28.4993 9.69085 28.0276 9.19085C27.6946 8.83371 27.1673 8.61942 26.5568 8.61942Z" fill="#343434"></path><path d="M33.7163 6.92894L36.7411 6.47656C36.8798 6.85751 36.9353 7.16704 36.9631 7.52418C37.5458 6.90513 38.8501 6.47656 40.1543 6.47656C41.0701 6.47656 42.0136 6.73847 42.7073 7.14323C44.0948 7.95275 45.1216 9.38132 45.1216 11.9528C45.1216 14.3575 44.6776 15.5956 43.3178 16.8099C42.4298 17.6194 41.2643 18.0718 39.8491 18.0718C38.8223 18.0718 37.8788 17.8575 37.1296 17.4766C37.1851 17.7385 37.1851 18.3813 37.1851 18.3813V21.1194L33.9106 21.8575V9.71466C33.9106 8.28609 33.8828 7.85751 33.7163 6.92894ZM37.2128 15.1194C37.6568 15.4528 38.4061 15.7623 39.0998 15.7623C40.7648 15.7623 41.4308 14.7861 41.4308 12.2385C41.4308 11.167 41.3198 10.3337 41.0978 9.78609C40.8481 9.16704 40.3208 8.85751 39.4883 8.85751C38.6558 8.85751 37.8511 9.16704 37.2406 9.71466V15.1194H37.2128Z" fill="#343434"></path><path d="M52.5029 3.11914H62.5484L61.6604 5.59533H56.0549V9.09533H61.1054V11.5715H56.1104V15.6191H61.6604L62.7704 18.2382H52.5029V3.11914Z" fill="white"></path></g><defs><clipPath id="clip0_670_5485"><rect width="111" height="25" fill="white"></rect></clipPath></defs></svg>