<svg xmlns="http://www.w3.org/2000/svg" width="199" height="25" viewBox="0 0 199 25" fill="none"><path d="M124.125 10.5624C126.304 10.2566 128.524 10.3177 130.724 10.4401C132.028 10.542 133.596 10.8683 134.228 12.1732C134.92 13.7228 134.777 15.4762 134.839 17.1278C134.757 18.6366 134.777 20.492 133.392 21.4503C131.865 22.3882 129.971 22.1232 128.26 22.1843C126.386 22.1232 124.369 22.429 122.658 21.5319C121.232 20.6755 121.212 18.7997 121.131 17.3317C121.11 15.7209 121.049 14.0286 121.558 12.479C121.925 11.3576 123.045 10.7459 124.125 10.5624ZM124.695 12.5606C124.206 12.6421 123.738 12.9072 123.554 13.3761C123.066 14.4976 123.229 15.7413 123.188 16.9239C123.188 17.8822 123.208 18.9628 123.86 19.6968C124.675 20.227 125.713 20.1454 126.65 20.227C128.239 20.2066 129.848 20.3493 131.417 20.0231C132.517 19.758 132.761 18.4939 132.761 17.5152C132.72 16.2306 132.924 14.9053 132.537 13.6616C132.374 13.0295 131.783 12.581 131.152 12.479C130.133 12.2955 129.095 12.3771 128.076 12.3567C126.936 12.3975 125.795 12.3159 124.695 12.5606ZM139.075 11.1741C140.664 10.1954 142.599 10.5012 144.371 10.4401C145.838 10.3789 147.406 10.7051 148.485 11.7654C149.443 12.6625 149.748 14.0082 149.789 15.2723C149.809 17.556 149.769 19.8396 149.809 22.1232C149.137 22.1639 148.445 22.1639 147.773 22.1639C147.752 19.758 147.773 17.3521 147.752 14.9461C147.732 14.0082 147.243 13.1111 146.408 12.6421C145.491 12.0916 144.391 12.2343 143.373 12.2139C142.497 12.2343 141.601 12.112 140.786 12.4586C139.788 12.8256 139.075 13.8043 139.096 14.8646C139.075 17.2909 139.096 19.7172 139.096 22.1639H137.079C137.059 19.7988 137.079 17.4336 137.079 15.0685C137.018 13.5596 137.69 11.9489 139.075 11.1741ZM151.948 10.4605H153.965C154.005 12.8256 153.965 15.1908 153.985 17.556C154.026 18.3104 154.107 19.1259 154.616 19.7172C155.187 20.2677 156.042 20.2677 156.796 20.3289C158.772 20.3493 160.768 20.3289 162.743 20.3493V22.1843C160.686 22.1639 158.629 22.1843 156.572 22.1843C155.451 22.1232 154.29 21.9804 153.313 21.4299C152.335 20.7775 152.131 19.4929 151.989 18.3919C151.765 15.7413 152.03 13.0907 151.948 10.4605ZM164.047 10.4401C164.719 10.4605 165.371 10.4605 166.043 10.4401C166.104 14.3344 166.023 18.2492 166.084 22.1436C165.391 22.1843 164.699 22.1843 164.006 22.1436C164.067 18.2492 163.986 14.3344 164.047 10.4401ZM170.646 11.1741C172.235 10.1954 174.17 10.5012 175.942 10.4605C177.409 10.3993 178.977 10.7255 180.036 11.7858C181.034 12.7237 181.34 14.1713 181.319 15.517C181.299 17.7395 181.34 19.9619 181.299 22.2047C180.627 22.1843 179.955 22.1843 179.303 22.2047C179.262 19.7988 179.303 17.3928 179.283 14.9869C179.262 14.0694 178.773 13.1519 177.979 12.7033C176.798 12.0101 175.392 12.3363 174.089 12.2547C172.968 12.1732 171.726 12.4994 171.074 13.4781C170.646 14.0694 170.606 14.8238 170.626 15.517V22.2047H168.589V14.9053C168.63 13.4169 169.343 11.9081 170.646 11.1741ZM184.028 11.7858C185.026 10.4605 186.86 10.4605 188.367 10.3993C190.546 10.4605 192.787 10.175 194.905 10.7867C195.964 11.0721 196.962 11.8266 197.146 12.9684C197.329 14.314 197.268 15.7005 197.248 17.0462C193.194 17.0054 189.161 17.0666 185.108 17.0258C185.128 18.0249 185.128 19.2687 185.984 19.9415C187.023 20.4716 188.245 20.3697 189.385 20.3901C191.015 20.3493 192.685 20.5124 194.294 20.1862C195.007 20.0435 195.313 19.3298 195.414 18.6774C196.046 18.6978 196.657 18.6978 197.288 18.6978C197.309 19.8599 196.922 21.2464 195.72 21.695C194.09 22.2863 192.318 22.1436 190.607 22.1639C188.896 22.1232 187.145 22.3067 185.475 21.8173C184.538 21.5523 183.784 20.7775 183.54 19.8396C183.173 18.4735 183.214 17.0666 183.214 15.6597C183.275 14.3752 183.254 12.9276 184.028 11.7858ZM186.086 12.6217C185.169 13.1315 185.149 14.3344 185.088 15.252H195.313C195.313 14.5995 195.353 13.947 195.211 13.315C195.027 12.7645 194.477 12.4586 193.948 12.3771C192.563 12.1528 191.157 12.2751 189.752 12.2343C188.55 12.2547 187.247 12.1324 186.086 12.6217Z" fill="#E30A17"></path><path d="M38.5571 11.9478C39.0867 10.8468 40.3903 10.5001 41.4902 10.4594C43.6493 10.439 45.8287 10.4594 47.9877 10.4594C49.108 10.4798 50.3301 10.7244 51.1041 11.6012C51.6541 12.1925 51.7966 13.0284 51.7966 13.8236C51.1041 13.8236 50.3912 13.8236 49.6987 13.844C49.658 13.008 48.9858 12.3556 48.1711 12.3352C46.1546 12.274 44.1177 12.3352 42.1012 12.3148C41.4902 12.2944 40.7569 12.5391 40.5532 13.1712C40.2681 13.7828 40.5125 14.5984 41.1439 14.8839C42.3253 15.4751 43.69 15.312 44.9732 15.312C46.5823 15.1897 48.2322 15.1081 49.7802 15.6383C50.7986 15.9645 51.6541 16.8616 51.7966 17.9423C51.9189 18.9821 51.8985 20.1443 51.3078 21.0414C50.7171 21.8978 49.6172 22.1425 48.6599 22.2036C46.3379 22.224 44.0159 22.2036 41.7142 22.2036C40.6755 22.1832 39.5348 21.8774 38.883 21.0211C38.3942 20.389 38.2923 19.5938 38.272 18.819C38.9645 18.8394 39.6367 18.819 40.3292 18.8394C40.3292 19.7161 41.1032 20.3278 41.9383 20.3482C43.8326 20.389 45.7472 20.3482 47.6415 20.3686C48.3136 20.389 49.1284 20.287 49.5561 19.6754C49.9838 18.9821 49.8413 17.9423 49.1284 17.4937C48.4562 17.0655 47.6211 17.0451 46.8267 16.984C44.5047 16.9432 42.0605 17.4529 39.8404 16.5558C38.0887 15.8014 37.8442 13.4974 38.5571 11.9478ZM55.5037 11.173C57.1739 10.1943 59.1904 10.3982 61.0439 10.3574C62.653 10.3778 64.4047 10.2759 65.8713 11.1322C66.9711 11.7643 67.7044 13.008 67.684 14.2926C67.5822 16.9228 67.6433 19.553 67.6229 22.2036H65.5454V21.2453C64.5066 22.0609 63.1622 22.3056 61.8587 22.2444C59.9644 22.2036 58.0498 22.3871 56.1962 21.959C55.1982 21.7551 54.4038 20.9395 54.1798 19.9608C53.8742 18.6763 53.9557 17.1879 54.7704 16.1276C55.5444 15.2101 56.8277 15.0674 57.9275 14.9858C59.5163 14.9246 61.105 14.9858 62.6938 14.9654C63.6918 14.945 64.751 15.0878 65.5657 15.7198C65.5046 14.7819 65.5046 13.7013 64.8121 13.008C63.7529 12.2129 62.3068 12.4167 61.0643 12.376C59.72 12.4371 58.3146 12.1925 57.0313 12.7226C56.4407 12.9265 56.1148 13.4974 56.074 14.1091H54.0168C53.9557 12.9265 54.4853 11.7235 55.5037 11.173ZM58.6812 16.7801C58.0701 16.8208 57.398 16.8412 56.848 17.1675C55.8092 17.7384 55.8092 19.5734 56.9702 20.0016C58.0294 20.3686 59.1497 20.2666 60.2496 20.287C61.6753 20.2463 63.1419 20.4502 64.5066 19.9608C65.525 19.5938 65.8509 18.1462 65.0973 17.3714C64.5677 16.8616 63.7937 16.8005 63.1011 16.7801C61.6346 16.7801 60.1477 16.7597 58.6812 16.7801ZM69.619 10.439H71.6355C71.6763 12.8041 71.5133 15.1489 71.6152 17.5141C71.6966 18.3093 71.7374 19.2472 72.3688 19.8181C72.9798 20.2259 73.7539 20.287 74.4871 20.3278H80.394C80.394 20.9395 80.394 21.5512 80.3736 22.1832C78.1738 22.1425 75.974 22.224 73.7742 22.1425C72.5725 22.0201 71.1467 21.8774 70.3523 20.8579C69.6802 19.8181 69.5987 18.5336 69.5376 17.3306C69.5579 15.0266 69.5579 12.743 69.619 10.439ZM82.5123 10.9487C84.0196 10.3166 85.7101 10.3982 87.3193 10.3982C89.2339 10.4186 91.23 10.2351 93.0224 11.0303C93.9186 11.4177 94.6112 12.274 94.6926 13.2731C94.8148 14.5168 94.7334 15.781 94.7537 17.0451H82.5734C82.6752 18.0442 82.5938 19.3083 83.49 19.9608C84.6102 20.4909 85.9138 20.3686 87.1156 20.4094C88.6839 20.3686 90.2727 20.5521 91.8207 20.1851C92.4928 20.0424 92.8187 19.3491 92.8595 18.7171H94.7741C94.7945 19.7161 94.5501 20.8783 93.6742 21.4696C92.7576 22.0609 91.6374 22.0813 90.5782 22.1629C88.8062 22.2036 87.0545 22.1832 85.2824 22.1832C84.1825 22.1221 82.9808 22.0609 82.0438 21.3881C81.2902 20.8375 80.9439 19.8996 80.8421 19.0025C80.618 17.2286 80.6384 15.414 80.8624 13.6401C81.005 12.5595 81.4939 11.4177 82.5123 10.9487ZM83.3881 12.7634C82.6956 13.375 82.6956 14.3741 82.5938 15.2101C86.0157 15.2713 89.4172 15.2101 92.8391 15.2509C92.8391 14.578 92.9002 13.9052 92.7576 13.2731C92.4928 12.5799 91.6985 12.3556 91.0467 12.3148C89.4172 12.1721 87.7674 12.274 86.1379 12.2332C85.1806 12.274 84.1825 12.2332 83.3881 12.7634ZM99.6218 10.4594C101.781 10.4186 103.92 10.4594 106.079 10.439C107.199 10.4594 108.421 10.6633 109.236 11.4992C109.826 12.1109 109.969 12.9876 110.03 13.7828C109.317 13.8032 108.604 13.8032 107.891 13.8032C107.871 12.8449 106.975 12.2536 106.079 12.274C104.001 12.274 101.903 12.2332 99.8255 12.2944C98.6645 12.3556 98.1756 14.0275 99.1126 14.7004C100.192 15.4344 101.577 15.2713 102.82 15.2713C104.694 15.1897 106.69 14.9654 108.441 15.781C109.419 16.2296 109.989 17.2694 110.05 18.3297C110.112 19.4307 109.949 20.7356 109.052 21.49C108.075 22.1832 106.812 22.1832 105.671 22.1629H99.7644C98.7867 22.1221 97.7072 21.8162 97.0757 21.0007C96.5869 20.389 96.4851 19.5734 96.424 18.7986C97.1165 18.7782 97.809 18.7986 98.4812 18.7782C98.4812 19.6346 99.1941 20.2463 100.009 20.287C101.822 20.3482 103.634 20.287 105.447 20.3074C106.119 20.3074 106.893 20.3482 107.443 19.8996C108.136 19.288 108.095 17.983 107.301 17.4733C106.649 17.0247 105.814 17.0043 105.06 16.9432C102.718 16.9228 100.212 17.4529 97.972 16.5354C96.3017 15.781 96.0573 13.5585 96.7091 12.0293C97.1776 10.8875 98.5015 10.5205 99.6218 10.4594ZM112.434 16.1072H118.544V17.9015H112.434V16.1072Z" fill="#343434"></path><path d="M4.48047 8.64453H34.7684V23.5899H4.48047V8.64453Z" fill="white"></path><path d="M11.1008 0H14.2579C14.1968 0.774795 14.2172 1.56998 14.2172 2.36516C15.8467 1.61076 17.5169 0.937909 19.1464 0.163115C19.2075 0.122336 19.3093 0.0407787 19.35 0H19.4723C19.513 0.0407787 19.5741 0.122336 19.6148 0.183504C25.6032 2.95645 31.6526 5.58668 37.6409 8.33924C36.8873 8.35963 36.1337 8.35963 35.4004 8.35963V23.8147H3.42189C3.40153 18.7174 3.42189 13.6201 3.42189 8.52274H1.14062C4.44032 6.83043 7.78075 5.21967 11.1008 3.56813C11.1212 2.36516 11.1008 1.18258 11.1008 0ZM5.09211 10.4597V22.1836H7.06785C7.08822 20.6952 7.06785 19.2271 7.06785 17.7387C9.4306 17.7591 11.8137 17.6164 14.1765 17.7183C14.9097 17.7387 15.6837 18.1057 15.9078 18.8397C16.2337 19.9204 16.03 21.0622 16.0707 22.1836H18.0872C18.0872 20.9806 18.1483 19.7573 18.0465 18.5339C17.9854 17.7591 17.5576 17.0047 16.8244 16.6581C17.2521 16.2299 17.6187 15.6998 17.6595 15.0881C17.7817 13.9463 17.7613 12.7026 17.1299 11.7035C16.4985 10.7452 15.256 10.5005 14.1968 10.4393C11.1823 10.4393 8.14738 10.4597 5.09211 10.4597ZM21.611 10.9083C20.5518 11.3569 19.9815 12.4783 19.8593 13.5793C19.6352 15.2308 19.6352 16.9231 19.7778 18.5747C19.8593 19.6349 20.1852 20.7971 21.1017 21.4292C22.0591 22.0409 23.2608 22.1224 24.3811 22.1632C26.1328 22.1632 27.8844 22.1836 29.6361 22.1428C30.736 22.0409 31.9378 22.0205 32.8544 21.3069C33.5876 20.6544 33.7506 19.6349 33.7709 18.697H31.8767C31.7952 19.3699 31.4489 20.0427 30.736 20.1854C29.1269 20.4913 27.4567 20.3282 25.8069 20.3689C24.6866 20.3486 23.4645 20.4301 22.4461 19.9C21.6109 19.2068 21.611 17.9834 21.611 16.9843C25.6439 17.0251 29.6972 16.9639 33.7302 17.0251C33.7709 15.761 33.8117 14.4764 33.6895 13.2123C33.608 12.3152 33.0377 11.4996 32.2229 11.1122C30.5527 10.2762 28.6381 10.3986 26.8456 10.3986C25.094 10.419 23.2812 10.2558 21.611 10.9083Z" fill="#E30A17"></path><path d="M22.4457 12.7017C23.2808 12.2327 24.2789 12.2531 25.2158 12.2328C26.8453 12.2735 28.4952 12.1512 30.1246 12.3143C30.7561 12.3755 31.4893 12.5998 31.7134 13.2726C31.856 13.9047 31.8356 14.5775 31.856 15.23C28.4341 15.3115 25.0325 15.2096 21.6106 15.2708C21.631 14.3736 21.6921 13.3134 22.4457 12.7017ZM7.08789 12.4774C9.32842 12.4978 11.569 12.4774 13.7891 12.4774C14.4205 12.4774 15.1538 12.5794 15.5408 13.1503C15.8871 13.7416 15.826 14.5367 15.439 15.1076C15.0927 15.5154 14.5428 15.6786 14.0132 15.6582C11.7115 15.6582 9.38953 15.6378 7.08789 15.6582V12.4774Z" fill="#E30A17"></path></svg>